<?xml version="1.0" encoding="UTF-8"?><svg id="Layer_1" xmlns="http://www.w3.org/2000/svg" viewBox="0 0 816.42 210"><defs><style>.cls-1,.cls-2{stroke-width:0px;}.cls-2{fill:#fff;}</style></defs><path class="cls-2" d="M0,210C0,140,0,70,0,0c272.14,0,544.28,0,816.42,0v210c-272.14,0-544.28,0-816.42,0ZM56.53,77.88c.95-.46,1.43-.69,1.9-.93,11.19-5.62,14.64-18.91,7.52-29.25-3.92-5.7-9.77-8.14-16.36-8.35-10.37-.33-20.76-.15-31.13-.17-.34,0-.69.18-1.05.28v80.61c.42.13.67.28.93.28,11.31,0,22.65.38,33.94-.13,14.49-.66,23.78-14.65,19.27-28.41-2.33-7.09-7.59-11.3-15.02-13.93ZM279.04,81.26c0-9.75-1.11-17.94-4.64-25.63-4.8-10.47-12.46-17.45-24.36-18.51-12.73-1.13-22.59,3.76-29.14,14.87-6.41,10.86-7.33,22.75-6.3,34.93.71,8.39,3.11,16.25,8,23.27,11.04,15.86,35.29,16.58,47.12,1.32,7.22-9.31,9.17-20.2,9.32-30.24ZM617.3,39.05v81.17c8.48,0,16.73.47,24.9-.1,15.81-1.1,26.58-10.22,30.55-25.55,2.57-9.91,2.52-19.98.07-29.92-3.01-12.21-10.49-20.39-22.75-23.86-10.73-3.03-21.72-1.02-32.78-1.74ZM782.87,79.67c.32-8.91-1.29-17.51-5.22-25.68-10.91-22.73-40.95-21.75-51.96-3.36-4.38,7.32-6.66,15.13-7.21,23.54-.71,10.95.23,21.65,5.44,31.56,5.47,10.41,13.96,16.4,25.92,16.69,12.28.3,21.33-5.24,27.19-15.93,4.56-8.32,6.12-17.34,5.83-26.83ZM298.81,39.31c0,1.3,0,2.4,0,3.5,0,12.6-.03,25.19.01,37.79.02,5.5-.12,11.03.31,16.5.81,10.21,4.87,18.67,14.83,22.91,7.47,3.19,15.31,3.21,23.07.94,8.28-2.42,13.73-7.98,15.95-16.18,1.23-4.53,1.83-9.36,1.89-14.06.22-16.14.09-32.28.08-48.43,0-.99-.09-1.97-.14-2.94h-5.21c0,1.19,0,2.2,0,3.2-.02,17.17.24,34.34-.14,51.51-.42,19.08-16.79,29.43-33.48,21.54-3.76-1.78-6.55-4.57-8.56-8.18-2.72-4.89-3.38-10.22-3.39-15.69-.02-16.42-.01-32.85-.02-49.27,0-1,0-2,0-3.15h-5.22ZM402.1,106.99c.37.63.62,1.11.92,1.56,9.35,13.99,31.01,18.32,45.56,9.51,11.76-7.13,14-27.33-.3-34.88-5.41-2.85-11.36-4.67-17.03-7.05-5.06-2.12-10.41-3.83-15.04-6.67-9.37-5.73-9.17-18.57,0-24.52,9.65-6.26,25.47-3.89,32.85,4.92,2.44,2.91,2.53,2.92,6.48.4-1.81-2.05-3.36-4.29-5.37-5.99-10.49-8.85-22.32-9.25-34.47-4.46-7.15,2.82-11.24,8.53-11.6,16.41-.38,8.05,3.13,14.13,10.2,17.88,4.02,2.13,8.36,3.66,12.57,5.41,6.02,2.5,12.17,4.71,18.07,7.47,11.23,5.26,9.43,21.1.85,26.78-10.93,7.23-28.04,4.75-36.66-5.67q-2.69-3.26-7.03-1.11ZM535.01,39.3c-.11.49-.22.76-.22,1.02.01,18.19-.07,36.38.1,54.58.06,5.93,1.47,11.66,4.85,16.71,5.23,7.79,13,10.59,21.93,10.77,9.03.18,17.28-1.81,23.18-9.43,4.89-6.32,6.01-13.72,6.02-21.39.03-16.51.01-33.03.01-49.54,0-.89,0-1.78,0-2.64h-5.28v3.52c0,14.37.02,28.73-.02,43.1-.01,3.63-.04,7.29-.38,10.9-.47,4.89-1.9,9.5-5.09,13.4-5.25,6.42-12.3,8.03-20.14,7.41-7.78-.61-13.55-4.29-17.09-11.34-2.51-5-2.92-10.37-2.93-15.8-.05-15.95-.02-31.91-.03-47.86,0-1.09,0-2.18,0-3.4h-4.92ZM142.6,115.87h-45.02v-35.69h39.42v-4.1h-39.45v-32.52h43.64v-4.18h-48.87v80.79h50.29v-4.3ZM181.48,120.25c0-1.36,0-2.47,0-3.57,0-9.05-.06-18.1.06-27.15.02-1.58.48-3.34,1.29-4.69,6.41-10.73,12.96-21.38,19.45-32.05,2.69-4.42,5.35-8.84,8.05-13.3-4.29-1.16-6.69.12-8.79,3.87-6.92,12.36-14.31,24.47-21.53,36.67-.35.59-.8,1.12-1.29,1.79-7.85-13.21-15.56-26.2-23.27-39.18-2.3-3.88-3.41-4.3-8.13-2.99.28.5.53.99.81,1.45,8.8,14.3,17.65,28.56,26.33,42.94,1.08,1.79,1.69,4.13,1.73,6.23.19,8.95.08,17.91.08,26.87,0,.99,0,1.99,0,3.12h5.21ZM489.02,43.63v76.57h5.31V43.6h25.37v-4.31h-56.3v4.33h25.63ZM698.31,120.3V39.4h-4.67v80.9h4.67ZM128.91,184.32c-2.95-1.56-4.14-3.76-4.07-7.11.17-7.36.06-14.73.05-22.09,0-.42-.17-.84-.31-1.48-.93.47-1.65.83-2.38,1.2,1.61,2.84,1.88,24.21.53,27.69,2.05.59,4.11,1.19,6.18,1.79ZM552.14,154.83c1.5,2.25,1.93,23.89.74,27.69,2.13.61,4.26,1.22,6.38,1.82-3.31-1.5-4.52-3.9-4.45-7.44.15-7.34.04-14.69.02-22.04,0-.32-.18-.64-.31-1.08-.85.37-1.51.66-2.39,1.05ZM390.73,183.46v-29.91c-1.09.53-1.79.88-2.5,1.23.28.05.56.1.84.15.11,4.67.26,9.35.31,14.02.05,4.81.01,9.62.01,14.5h1.33ZM470.89,183.44c-.43-2-1.02-3.5-1.04-5-.1-7.64-.05-15.29-.07-22.93,0-.51-.19-1.01-.34-1.74-.87.41-1.51.72-1.55.74v13.71c-1.2-.26-2.43-.52-3.66-.79,3.25,1.33,4.63,3.58,4.25,7.06-.19,1.75-.18,3.54-.09,5.3.07,1.4.41,2.79.68,4.48,1.19-.54,1.85-.84,1.84-.83ZM525.71,155.3c-3.91,3.51-3.4,8.79-4.02,13.32-.66,4.77.56,9.79.97,14.79h1.19c.62-9.51-1.72-19,1.87-28.11ZM647.5,168.1c.25,1.49.57,2.64.6,3.8.08,2.69,0,5.38.02,8.07.04,3.76.84,4.42,5.45,3.8-3.9-.62-4.13-2.94-4.08-5.53.08-3.95.02-7.9.02-12.06-.92.88-1.63,1.55-2.02,1.92ZM230.77,168.67c.39.93.83,1.52.86,2.13.14,2.59.17,5.19.21,7.79.08,5.12,2.79,6.71,7.42,4.33-4.3.75-5.98-.66-6.02-5.08-.02-3.07,0-6.13-.03-9.2,0-.24-.18-.47-.33-.84-.74.31-1.4.58-2.11.88ZM354.83,168.24c5.26.1,6.15.99,6.21,5.69.04,3.15,0,6.31,0,9.53h1.71c-.09-1.86-.21-3.61-.26-5.35-.05-1.77,0-3.54-.04-5.31-.11-4.75-2.23-6.21-7.63-4.55ZM621.2,168.53c.26,1.62.61,3.09.7,4.57.15,2.31-.08,4.66.21,6.95.44,3.47,2.51,4.55,5.95,3.39-3.62-.68-4.63-1.89-4.7-5.77-.05-3.22-.01-6.44-.01-9.96-1.03.39-1.7.65-2.15.82ZM437.31,167.98c2.76,0,5.18.8,5.33,3.92.18,3.69-.14,7.41-.23,11.12,0,.15.15.3.28.56.56-.06,1.16-.12,1.55-.16,0-3.5.01-6.76,0-10.01-.02-5.16-1.47-6.37-6.92-5.42ZM664.32,168.2c2.63,5.3,5.15,10.35,7.66,15.4.28-.07.56-.13.84-.2-.16-.89-.15-1.85-.52-2.64-1.93-4.1-3.96-8.16-6.11-12.56h-1.86ZM579.44,170.32c-3.12,2.29-2.94,8.01-1.44,10.44,1.64,2.67,4.05,3.71,7.43,3.04-6.17-2.2-7.89-6.07-5.99-13.47ZM313.72,168.2c2.43,5.22,4.77,10.27,7.38,15.88.47-1.12.9-1.63.78-1.93-1.86-4.62-3.8-9.2-5.72-13.8-.03-.07-.14-.11-.33-.26-.59.03-1.31.06-2.11.1ZM566.14,181.35c2.68-2.53,3.5-6.73,1.98-10.15-1.27-2.84-3.38-3.9-7.06-3.52,5.61,1.89,7.3,6.42,5.08,13.67ZM606.75,167.55c.51,1.78,1.31,3.52,1.47,5.33.23,2.66-.06,5.37.02,8.05.03,1.02.49,2.03.81,3.23,1.01-.48,1.65-.78,1.82-.86-.44-1.45-1.05-2.63-1.12-3.86-.17-2.68.02-5.38-.11-8.07-.1-2.05-.64-3.94-2.88-3.83ZM156.25,183.96c-7.07-1.63-8.63-6.51-6.9-13.55-2.4,2.44-3.17,6.69-1.75,9.73,1.39,2.99,3.75,4.15,8.65,3.82ZM190.48,183.85c.26-.07.53-.13.79-.2-.21-.97-.26-2.01-.66-2.89-1.72-3.72-3.8-7.3-5.22-11.12-.66-1.78-1.21-1.71-2.6-1.29,2.64,5.33,5.17,10.41,7.69,15.49ZM330.72,183.41c.35-.06.71-.11,1.06-.17-.16-.82-.19-1.7-.52-2.45-1.82-4.14-3.72-8.25-5.69-12.59h-1.89c2.4,5.19,4.72,10.2,7.04,15.21ZM414.6,168.84c2.35,4.84.99,9.73,1.02,14.66.56-.04,1.23-.08,1.58-.1v-15.7c-1.31.57-2.22.97-2.6,1.14ZM350.82,183.5v-16.23c-1.47.74-2.15,1.09-2.26,1.14,2.01,5.16.89,10.17.86,15.09h1.4ZM245.97,183.18c-2.98-4.89-.53-10.26-1.78-15.38-.76.36-1.45.68-1.42.67.26,5.46.49,10.42.74,15.72,1.38-.57,2.04-.84,2.46-1.02ZM212.87,184.18c-5.15-3.48-6.42-7.41-4.7-14.63-2.94,2.87-3.12,6.07-2.03,9.4,1,3.06,3.2,4.88,6.73,5.23ZM298.63,167.63c5.79,3.12,5.56,8.31,4.61,14.24,2.68-3.08,2.97-6.03,1.89-9.19-1.05-3.07-3.17-4.89-6.51-5.06ZM219.86,181.3c2.45-2.66,2.8-5.71,1.53-8.93-1.14-2.89-3.24-4.63-6.98-4.9,6.17,3.27,6.3,8.32,5.45,13.83ZM292.03,169.3c-3.24,3.33-3.35,6.61-2.12,10.06,1,2.81,3.45,4.47,6.42,4.58-4.91-3.03-6.38-7.62-4.31-14.64ZM456.79,170.86c-2.4,2.35-3.03,6.57-1.46,9.69,1.45,2.88,3.42,3.85,6.74,3.32-5.54-2.57-6.57-5.12-5.28-13.01ZM135.83,181.75c2.79-2.81,3.7-7.41,2.12-10.71-1.34-2.8-3.39-3.77-7.19-3.4,5.97,1.8,7.72,6.69,5.07,14.11ZM505.2,167.58c1.2,1.96,3.11,4.02,3.77,6.41.68,2.49.15,5.3.15,7.73,2.36-2.34,2.74-5.56,1.69-8.96-.92-2.99-3.04-4.81-5.61-5.19ZM501.56,184.11c.08-.04.17-.07.25-.11-5.07-3.37-5.98-8.18-4.45-14.09-4.79,5.09-2.32,12.61,4.2,14.2ZM259.79,183.51v-16.3c-1.62.73-2.35,1.06-2.7,1.22,2.57,4.95,1.04,10.07,1.21,15.08h1.49ZM636.23,183.19c-3.13-4.87-.41-10.39-2.01-15.38-.84.41-1.47.71-2.09,1.01.28.04.55.07.83.11.26,5,.51,10,.79,15.34,1.34-.58,2.01-.87,2.49-1.08ZM432.37,183.52v-16.16c-1.36.62-1.96.88-2.53,1.17-.11.06-.16.25.04-.09,2.87,5.05,1.04,10.15,1.32,15.08h1.17ZM402.64,183.53c-2.71-3.53-5.28-6.88-7.85-10.22-.33.22-.65.43-.98.65,2.07,3.13,4.14,6.25,6.34,9.57h2.49ZM155.38,167.64c.68,1.08,1.59,2.57,2.54,4.03.27.41.66.74.99,1.1.28-.48.79-.95.8-1.44.08-2.5-1.82-3.77-4.33-3.69ZM585.08,166.91c1.48,2.2,2.68,3.98,3.88,5.76.55-1.04.81-2.4.26-2.97-1.09-1.13-2.63-1.82-4.14-2.79ZM599.98,178.86c-.1,1.4-.74,3.11-.16,3.83.75.92,2.49,1.04,3.68,1.46-1.15-1.73-2.11-3.17-3.52-5.28Z"/><path class="cls-1" d="M56.53,77.88c7.42,2.63,12.69,6.84,15.02,13.93,4.51,13.75-4.78,27.75-19.27,28.41-11.29.51-22.62.13-33.94.13-.26,0-.51-.15-.93-.28V39.47c.36-.1.71-.28,1.05-.28,10.38.02,20.76-.16,31.13.17,6.59.21,12.44,2.65,16.36,8.35,7.12,10.34,3.67,23.63-7.52,29.25-.47.24-.95.47-1.9.93ZM22.58,80.69v35.11c9.3,0,18.36.13,27.41-.05,5.48-.11,10.22-2.31,13.64-6.68,4.22-5.39,4.88-11.43,2.17-17.65-2.93-6.72-8.52-10.27-15.59-10.62-9.12-.46-18.28-.11-27.63-.11ZM22.46,76.08c8.71,0,17.1.1,25.49-.07,2.08-.04,4.21-.8,6.22-1.52,7.09-2.52,10.66-8.74,9.85-16.87-.7-7.05-5.75-12.87-12.87-13.36-9.38-.65-18.82-.41-28.24-.54-.14,0-.28.22-.44.36v32Z"/><path class="cls-1" d="M279.04,81.26c-.14,10.04-2.1,20.93-9.32,30.24-11.83,15.26-36.08,14.53-47.12-1.32-4.89-7.02-7.29-14.88-8-23.27-1.03-12.18-.11-24.06,6.3-34.93,6.55-11.11,16.41-16,29.14-14.87,11.89,1.06,19.55,8.04,24.36,18.51,3.53,7.69,4.63,15.89,4.64,25.63ZM219.66,79.76c.05,10.92,2.1,18.54,6.2,26.05,8.68,15.88,32.49,16.15,41.05.89,9.54-17,9.37-34.66,1.14-52.02-4.15-8.76-11.83-13.27-21.77-13.09-9.82.17-16.68,5.18-21.29,13.57-4.21,7.67-5.21,16.04-5.34,24.6Z"/><path class="cls-1" d="M617.3,39.05c11.06.72,22.04-1.29,32.78,1.74,12.26,3.46,19.74,11.65,22.75,23.86,2.45,9.94,2.5,20.02-.07,29.92-3.97,15.33-14.74,24.44-30.55,25.55-8.17.57-16.42.1-24.9.1V39.05ZM622.33,116.2c7.51-.33,14.77-.02,21.82-1.11,11.66-1.8,19.86-8.36,23.04-20.08,2.82-10.39,2.73-20.89-.19-31.24-2.2-7.81-6.89-13.81-14.5-17.17-9.7-4.29-19.95-2.64-30.18-3v72.6Z"/><path class="cls-1" d="M782.87,79.67c.29,9.49-1.27,18.51-5.83,26.83-5.86,10.69-14.91,16.23-27.19,15.93-11.96-.29-20.45-6.28-25.92-16.69-5.21-9.91-6.15-20.61-5.44-31.56.54-8.41,2.83-16.22,7.21-23.54,11.01-18.39,41.04-19.37,51.96,3.36,3.92,8.17,5.54,16.77,5.22,25.68ZM723.72,79.47c-.01,10.26,1.39,16.96,5.17,24.63,8.43,17.12,28.3,16.38,37.2,8.35,4.79-4.32,7.85-9.72,9.41-15.88,3.6-14.23,3.64-28.33-3.29-41.66-8.88-17.07-31.06-18.12-41.74-2.12-5.38,8.07-6.81,17.21-6.75,26.68Z"/><path class="cls-1" d="M298.81,39.31h5.22c0,1.15,0,2.15,0,3.15,0,16.42,0,32.85.02,49.27,0,5.46.67,10.8,3.39,15.69,2.01,3.61,4.8,6.4,8.56,8.18,16.69,7.89,33.07-2.45,33.48-21.54.37-17.16.12-34.34.14-51.51,0-1.01,0-2.01,0-3.2h5.21c.05.97.14,1.96.14,2.94.01,16.14.15,32.29-.08,48.43-.06,4.7-.66,9.53-1.89,14.06-2.23,8.21-7.67,13.77-15.95,16.18-7.76,2.27-15.6,2.24-23.07-.94-9.96-4.25-14.02-12.71-14.83-22.91-.43-5.48-.29-11-.31-16.5-.04-12.6-.01-25.19-.01-37.79,0-1.1,0-2.2,0-3.5Z"/><path class="cls-1" d="M402.1,106.99q4.34-2.15,7.03,1.11c8.61,10.43,25.73,12.9,36.66,5.67,8.58-5.68,10.38-21.52-.85-26.78-5.89-2.76-12.05-4.97-18.07-7.47-4.22-1.75-8.55-3.28-12.57-5.41-7.07-3.75-10.57-9.83-10.2-17.88.37-7.88,4.46-13.59,11.6-16.41,12.15-4.79,23.99-4.39,34.47,4.46,2.01,1.7,3.56,3.94,5.37,5.99-3.95,2.51-4.05,2.5-6.48-.4-7.38-8.8-23.21-11.17-32.85-4.92-9.17,5.94-9.37,18.79,0,24.52,4.64,2.84,9.98,4.54,15.04,6.67,5.67,2.38,11.62,4.19,17.03,7.05,14.3,7.55,12.06,27.75.3,34.88-14.55,8.82-36.2,4.49-45.56-9.51-.3-.45-.55-.93-.92-1.56Z"/><path class="cls-1" d="M535.01,39.3h4.92c0,1.22,0,2.31,0,3.4,0,15.95-.02,31.91.03,47.86.02,5.43.43,10.81,2.93,15.8,3.54,7.05,9.3,10.72,17.09,11.34,7.84.62,14.89-.99,20.14-7.41,3.19-3.9,4.62-8.51,5.09-13.4.35-3.61.37-7.26.38-10.9.04-14.37.02-28.73.02-43.1v-3.52h5.28c0,.87,0,1.76,0,2.64,0,16.51.02,33.03-.01,49.54-.02,7.68-1.13,15.07-6.02,21.39-5.9,7.62-14.15,9.61-23.18,9.43-8.93-.18-16.7-2.98-21.93-10.77-3.39-5.05-4.8-10.77-4.85-16.71-.17-18.19-.09-36.38-.1-54.58,0-.26.11-.53.22-1.02Z"/><path class="cls-1" d="M142.6,115.87v4.3h-50.29V39.39h48.87v4.18h-43.64v32.52h39.45v4.1h-39.42v35.69h45.02Z"/><path class="cls-1" d="M181.48,120.25h-5.21c0-1.13,0-2.13,0-3.12,0-8.96.11-17.91-.08-26.87-.04-2.1-.65-4.44-1.73-6.23-8.68-14.37-17.53-28.64-26.33-42.94-.28-.46-.53-.95-.81-1.45,4.72-1.31,5.83-.88,8.13,2.99,7.71,12.98,15.42,25.96,23.27,39.18.49-.67.94-1.2,1.29-1.79,7.22-12.2,14.6-24.31,21.53-36.67,2.1-3.75,4.5-5.03,8.79-3.87-2.7,4.45-5.36,8.88-8.05,13.3-6.5,10.68-13.04,21.32-19.45,32.05-.81,1.35-1.27,3.11-1.29,4.69-.12,9.05-.06,18.1-.06,27.15,0,1.1,0,2.21,0,3.57Z"/><path class="cls-1" d="M489.02,43.63h-25.63v-4.33h56.3v4.31h-25.37v76.6h-5.31V43.63Z"/><path class="cls-1" d="M698.31,120.3h-4.67V39.4h4.67v80.9Z"/><path class="cls-1" d="M128.91,184.32c-2.06-.6-4.13-1.19-6.18-1.79,1.35-3.48,1.08-24.85-.53-27.69.73-.37,1.44-.73,2.38-1.2.14.64.31,1.06.31,1.48.01,7.36.13,14.73-.05,22.09-.08,3.35,1.11,5.55,4.07,7.11Z"/><path class="cls-1" d="M552.14,154.83c.88-.39,1.54-.68,2.39-1.05.13.45.31.76.31,1.08.02,7.35.13,14.69-.02,22.04-.07,3.54,1.14,5.94,4.45,7.44-2.13-.61-4.25-1.21-6.38-1.82,1.2-3.79.76-25.44-.74-27.69Z"/><path class="cls-1" d="M390.73,183.46h-1.33c0-4.88.04-9.69-.01-14.5-.05-4.68-.2-9.35-.31-14.02-.28-.05-.56-.1-.84-.15.71-.35,1.41-.69,2.5-1.23v29.91Z"/><path class="cls-1" d="M470.89,183.44s-.64.29-1.84.83c-.27-1.69-.61-3.08-.68-4.48-.09-1.76-.1-3.55.09-5.3.38-3.47-1-5.73-4.25-7.06,1.23.26,2.46.53,3.66.79v-13.71s.68-.32,1.55-.74c.15.72.34,1.23.34,1.74.02,7.64-.03,15.29.07,22.93.02,1.5.61,3,1.04,5Z"/><path class="cls-1" d="M525.71,155.3c-3.59,9.11-1.25,18.6-1.87,28.11h-1.19c-.41-5-1.63-10.03-.97-14.79.63-4.53.11-9.81,4.02-13.32Z"/><path class="cls-1" d="M647.5,168.1c.39-.37,1.1-1.05,2.02-1.92,0,4.16.06,8.11-.02,12.06-.05,2.59.18,4.91,4.08,5.53-4.62.62-5.42-.04-5.45-3.8-.03-2.69.06-5.38-.02-8.07-.03-1.16-.36-2.32-.6-3.8Z"/><path class="cls-1" d="M230.77,168.67c.72-.3,1.37-.57,2.11-.88.15.37.33.6.33.84.02,3.07.01,6.13.03,9.2.03,4.42,1.71,5.83,6.02,5.08-4.63,2.38-7.34.79-7.42-4.33-.04-2.6-.07-5.2-.21-7.79-.03-.61-.47-1.19-.86-2.13Z"/><path class="cls-1" d="M354.83,168.24c5.4-1.66,7.52-.2,7.63,4.55.04,1.77,0,3.54.04,5.31.05,1.75.16,3.49.26,5.35h-1.71c0-3.22.03-6.38,0-9.53-.06-4.69-.95-5.58-6.21-5.69Z"/><path class="cls-1" d="M621.2,168.53c.45-.17,1.12-.42,2.15-.82,0,3.52-.04,6.74.01,9.96.06,3.89,1.08,5.09,4.7,5.77-3.44,1.16-5.51.08-5.95-3.39-.29-2.29-.07-4.64-.21-6.95-.09-1.49-.45-2.96-.7-4.57Z"/><path class="cls-1" d="M437.31,167.98c5.45-.95,6.9.26,6.92,5.42.01,3.26,0,6.51,0,10.01-.39.04-.99.1-1.55.16-.13-.25-.28-.41-.28-.56.09-3.71.41-7.43.23-11.12-.15-3.12-2.57-3.92-5.33-3.92Z"/><path class="cls-1" d="M664.32,168.2h1.86c2.15,4.4,4.18,8.45,6.11,12.56.37.79.36,1.76.52,2.64-.28.07-.56.13-.84.2-2.51-5.05-5.03-10.1-7.66-15.4Z"/><path class="cls-1" d="M579.44,170.32c-1.91,7.4-.18,11.28,5.99,13.47-3.38.67-5.78-.37-7.43-3.04-1.5-2.43-1.68-8.15,1.44-10.44Z"/><path class="cls-1" d="M313.72,168.2c.8-.04,1.51-.07,2.11-.1.2.15.3.19.33.26,1.92,4.59,3.86,9.18,5.72,13.8.12.29-.31.8-.78,1.93-2.61-5.61-4.96-10.66-7.38-15.88Z"/><path class="cls-1" d="M566.14,181.35c2.22-7.25.53-11.78-5.08-13.67,3.68-.37,5.79.68,7.06,3.52,1.53,3.41.71,7.61-1.98,10.15Z"/><path class="cls-1" d="M606.75,167.55c2.24-.11,2.78,1.78,2.88,3.83.13,2.68-.06,5.39.11,8.07.08,1.22.68,2.41,1.12,3.86-.17.08-.81.38-1.82.86-.32-1.2-.78-2.21-.81-3.23-.08-2.68.21-5.39-.02-8.05-.16-1.8-.96-3.55-1.47-5.33Z"/><path class="cls-1" d="M156.25,183.96c-4.9.33-7.26-.83-8.65-3.82-1.41-3.04-.65-7.29,1.75-9.73-1.73,7.04-.18,11.92,6.9,13.55Z"/><path class="cls-1" d="M190.48,183.85c-2.52-5.08-5.05-10.17-7.69-15.49,1.39-.42,1.93-.5,2.6,1.29,1.42,3.82,3.5,7.4,5.22,11.12.41.88.45,1.92.66,2.89-.26.07-.53.13-.79.2Z"/><path class="cls-1" d="M330.72,183.41c-2.32-5.01-4.64-10.02-7.04-15.21h1.89c1.97,4.35,3.87,8.45,5.69,12.59.33.75.35,1.63.52,2.45-.35.06-.71.11-1.06.17Z"/><path class="cls-1" d="M414.6,168.84c.39-.17,1.3-.57,2.6-1.14v15.7c-.36.02-1.03.06-1.58.1-.03-4.93,1.33-9.82-1.02-14.66Z"/><path class="cls-1" d="M350.82,183.5h-1.4c.02-4.91,1.14-9.92-.86-15.09.11-.06.8-.4,2.26-1.14v16.23Z"/><path class="cls-1" d="M245.97,183.18c-.42.17-1.08.45-2.46,1.02-.25-5.3-.48-10.26-.74-15.72-.03.01.66-.31,1.42-.67,1.25,5.12-1.2,10.49,1.78,15.38Z"/><path class="cls-1" d="M212.87,184.18c-3.53-.35-5.72-2.16-6.73-5.23-1.09-3.33-.91-6.54,2.03-9.4-1.72,7.22-.45,11.15,4.7,14.63Z"/><path class="cls-1" d="M298.63,167.63c3.33.17,5.45,1.99,6.51,5.06,1.08,3.15.79,6.11-1.89,9.19.95-5.93,1.18-11.12-4.61-14.24Z"/><path class="cls-1" d="M219.86,181.3c.85-5.52.72-10.56-5.45-13.83,3.74.27,5.84,2.01,6.98,4.9,1.27,3.23.92,6.27-1.53,8.93Z"/><path class="cls-1" d="M292.03,169.3c-2.08,7.01-.61,11.6,4.31,14.64-2.97-.11-5.42-1.77-6.42-4.58-1.23-3.45-1.13-6.72,2.12-10.06Z"/><path class="cls-1" d="M456.79,170.86c-1.29,7.89-.26,10.44,5.28,13.01-3.32.53-5.29-.44-6.74-3.32-1.57-3.12-.94-7.35,1.46-9.69Z"/><path class="cls-1" d="M135.83,181.75c2.65-7.42.89-12.31-5.07-14.11,3.8-.37,5.85.6,7.19,3.4,1.58,3.3.67,7.9-2.12,10.71Z"/><path class="cls-1" d="M505.2,167.58c2.56.38,4.68,2.2,5.61,5.19,1.05,3.4.67,6.61-1.69,8.96,0-2.43.53-5.25-.15-7.73-.66-2.4-2.57-4.46-3.77-6.41Z"/><path class="cls-1" d="M501.56,184.11c-6.52-1.59-8.99-9.1-4.2-14.2-1.53,5.91-.62,10.72,4.45,14.09-.08.04-.17.07-.25.11Z"/><path class="cls-1" d="M259.79,183.51h-1.49c-.17-5.01,1.36-10.13-1.21-15.08.35-.16,1.08-.49,2.7-1.22v16.3Z"/><path class="cls-1" d="M636.23,183.19c-.48.21-1.15.5-2.49,1.08-.27-5.34-.53-10.34-.79-15.34-.28-.04-.55-.07-.83-.11.63-.3,1.25-.61,2.09-1.01,1.61,4.99-1.11,10.51,2.01,15.38Z"/><path class="cls-1" d="M432.37,183.52h-1.17c-.28-4.93,1.55-10.03-1.32-15.08-.2.34-.16.15-.04.09.58-.29,1.17-.55,2.53-1.17v16.16Z"/><path class="cls-1" d="M402.64,183.53h-2.49c-2.2-3.32-4.27-6.45-6.34-9.57.33-.22.65-.43.98-.65,2.57,3.35,5.14,6.69,7.85,10.22Z"/><path class="cls-1" d="M155.38,167.64c2.51-.08,4.42,1.2,4.33,3.69-.02.49-.52.96-.8,1.44-.33-.37-.72-.69-.99-1.1-.95-1.46-1.86-2.95-2.54-4.03Z"/><path class="cls-1" d="M585.08,166.91c1.51.97,3.05,1.66,4.14,2.79.56.58.3,1.94-.26,2.97-1.2-1.78-2.39-3.56-3.88-5.76Z"/><path class="cls-1" d="M599.98,178.86c1.41,2.12,2.37,3.56,3.52,5.28-1.19-.42-2.92-.54-3.68-1.46-.59-.71.05-2.43.16-3.83Z"/><path class="cls-2" d="M22.58,80.69c9.34,0,18.5-.35,27.63.11,7.06.36,12.66,3.91,15.59,10.62,2.71,6.22,2.05,12.26-2.17,17.65-3.42,4.37-8.16,6.57-13.64,6.68-9.05.17-18.11.05-27.41.05v-35.11Z"/><path class="cls-2" d="M22.46,76.08v-32c.16-.14.3-.36.44-.36,9.42.13,18.86-.11,28.24.54,7.13.49,12.17,6.31,12.87,13.36.81,8.14-2.76,14.35-9.85,16.87-2.01.71-4.13,1.47-6.22,1.52-8.39.17-16.78.07-25.49.07Z"/><path class="cls-2" d="M219.66,79.76c.13-8.56,1.13-16.93,5.34-24.6,4.61-8.4,11.47-13.4,21.29-13.57,9.94-.18,17.62,4.33,21.77,13.09,8.22,17.36,8.4,35.02-1.14,52.02-8.56,15.25-32.37,14.99-41.05-.89-4.1-7.5-6.15-15.13-6.2-26.05Z"/><path class="cls-2" d="M622.33,116.2V43.6c10.22.36,20.47-1.29,30.18,3,7.6,3.36,12.29,9.36,14.5,17.17,2.92,10.35,3,20.85.19,31.24-3.18,11.72-11.38,18.29-23.04,20.08-7.05,1.09-14.31.78-21.82,1.11Z"/><path class="cls-2" d="M723.72,79.47c-.05-9.48,1.37-18.61,6.76-26.68,10.68-16,32.86-14.95,41.74,2.12,6.93,13.33,6.89,27.43,3.29,41.66-1.56,6.17-4.62,11.56-9.41,15.88-8.9,8.03-28.77,8.77-37.2-8.35-3.78-7.67-5.18-14.37-5.17-24.63Z"/></svg>